<?xml version="1.0" encoding="UTF-8"?>
<svg id="Ebene_2" data-name="Ebene 2" xmlns="http://www.w3.org/2000/svg" viewBox="0 0 180 200">
  <defs>
    <style>
      .cls-1 {
        fill: #0785a5;
      }
    </style>
  </defs>
  <g id="Ebene_1-2" data-name="Ebene 1">
    <path class="cls-1" d="M20.09,139.68l69.9,39.76,69.92-39.76V60.16L89.99,20.42,20.09,60.16s0,79.52,0,79.52Zm41.39-43.98c0-8.4,2.61-15.11,7.81-20.15s12.12-7.56,20.78-7.56,15.45,2.52,20.65,7.56,7.81,11.75,7.81,20.15v34.3h-10.83v-34.42c0-5.38-1.62-9.68-4.84-12.92-3.24-3.22-7.54-4.46-12.92-4.46s-9.43,1.24-12.65,4.46c-3.24,3.24-4.86,7.54-4.86,12.92v34.42h-10.96v-34.3h.01Zm110.79-51.27L97.71,2.04c-4.76-2.72-10.66-2.72-15.45,0L7.73,44.43c-4.8,2.72-7.73,7.74-7.73,13.17v84.79c0,5.43,2.93,10.46,7.73,13.17l74.53,42.4c2.4,1.37,5.05,2.04,7.72,2.04s5.35-.67,7.73-2.04l74.56-42.4c4.77-2.71,7.73-7.74,7.73-13.17V57.6c0-5.43-2.96-10.45-7.73-13.17h0Zm-3.09,100.59l-79.2,45.05L10.81,145.02V54.97L89.98,9.95l79.2,45.02v90.05h0Z"/>
  </g>
</svg>